<svg width="512" height="512" version="1.1" xmlns="http://www.w3.org/2000/svg" desc="Created with imagetracer.js version 1.2.6" ><path fill="rgb(254,194,217)" stroke="rgb(254,194,217)" stroke-width="1" opacity="0.996078431372549" d="M 355.5 81 L 373.5 82 L 383.5 84 L 397.5 89 Q 416.3 97.7 430 111.5 L 432 115.5 L 424.5 121 Q 410.7 105.3 389.5 97 L 368.5 92 L 350.5 92 L 323.5 99 L 307.5 107 L 295.5 115 L 273.5 135 L 272 135 L 264.5 144 Q 260.5 147.5 251.5 146 L 242 139.5 L 232.5 129 L 213 113.5 L 222 107.5 L 221.5 106 Q 239.8 119.3 254.5 136 L 256.5 136 L 262 131.5 L 271.5 121 Q 291.1 102.1 317.5 90 L 339.5 83 L 354.5 82 L 355.5 81 Z " /><path fill="rgb(254,194,217)" stroke="rgb(254,194,217)" stroke-width="1" opacity="0.996078431372549" d="M 141.5 92 L 144 92.5 L 141.5 93 L 141.5 92 Z " /><path fill="rgb(254,194,217)" stroke="rgb(254,194,217)" stroke-width="1" opacity="0.996078431372549" d="M 159.5 92 L 162 92.5 L 159.5 93 L 159.5 92 Z " /><path fill="rgb(254,194,217)" stroke="rgb(254,194,217)" stroke-width="1" opacity="0.996078431372549" d="M 214.5 101 L 215.5 103 L 214.5 101 Z " /><path fill="rgb(254,194,217)" stroke="rgb(254,194,217)" stroke-width="1" opacity="0.996078431372549" d="M 217.5 103 L 218.5 105 L 217.5 103 Z " /><path fill="rgb(254,194,217)" stroke="rgb(254,194,217)" stroke-width="1" opacity="0.996078431372549" d="M 207.5 109 L 208.5 111 L 207.5 109 Z " /><path fill="rgb(254,194,217)" stroke="rgb(254,194,217)" stroke-width="1" opacity="0.996078431372549" d="M 210.5 111 L 211.5 113 L 210.5 111 Z " /><path fill="rgb(254,194,217)" stroke="rgb(254,194,217)" stroke-width="1" opacity="0.996078431372549" d="M 95.5 112 L 93.5 115 L 95.5 112 Z " /><path fill="rgb(254,194,217)" stroke="rgb(254,194,217)" stroke-width="1" opacity="0.996078431372549" d="M 74.5 118 L 73.5 120 L 74.5 118 Z " /><path fill="rgb(254,194,217)" stroke="rgb(254,194,217)" stroke-width="1" opacity="0.996078431372549" d="M 83.5 124 L 82.5 126 L 83.5 124 Z " /><path fill="rgb(254,194,217)" stroke="rgb(254,194,217)" stroke-width="1" opacity="0.996078431372549" d="M 79.5 129 L 78.5 131 L 79.5 129 Z " /><path fill="rgb(254,194,217)" stroke="rgb(254,194,217)" stroke-width="1" opacity="0.996078431372549" d="M 57.5 183 L 58 186.5 L 57 186.5 L 57.5 183 Z " /><path fill="rgb(254,194,217)" stroke="rgb(254,194,217)" stroke-width="1" opacity="0.996078431372549" d="M 46.5 189 L 47 198.5 L 46 198.5 L 46.5 189 Z " /><path fill="rgb(254,194,217)" stroke="rgb(254,194,217)" stroke-width="1" opacity="0.996078431372549" d="M 57.5 200 L 58 203.5 L 57 203.5 L 57.5 200 Z " /><path fill="rgb(254,194,217)" stroke="rgb(254,194,217)" stroke-width="1" opacity="0.996078431372549" d="M 63.5 228 Q 73.9 254.1 94.5 270 L 156 325.5 L 147.5 332 L 77 268.5 Q 62.1 254.5 55 234 L 63.5 228 Z " /><path fill="rgb(253,125,173)" stroke="rgb(253,125,173)" stroke-width="1" opacity="0.996078431372549" d="M 159.5 81 L 162 81.5 L 159.5 82 L 159.5 81 Z " /><path fill="rgb(253,125,173)" stroke="rgb(253,125,173)" stroke-width="1" opacity="0.996078431372549" d="M 351.5 81 L 355 81.5 L 351.5 82 L 351.5 81 Z " /><path fill="rgb(253,125,173)" stroke="rgb(253,125,173)" stroke-width="1" opacity="0.996078431372549" d="M 363.5 81 L 368 81.5 L 363.5 82 L 363.5 81 Z " /><path fill="rgb(253,125,173)" stroke="rgb(253,125,173)" stroke-width="1" opacity="0.996078431372549" d="M 144.5 92 L 150 92.5 L 144.5 93 L 144.5 92 Z " /><path fill="rgb(253,125,173)" stroke="rgb(253,125,173)" stroke-width="1" opacity="0.996078431372549" d="M 152.5 92 L 159 92.5 L 152.5 93 L 152.5 92 Z " /><path fill="rgb(253,125,173)" stroke="rgb(253,125,173)" stroke-width="1" opacity="0.996078431372549" d="M 350.5 92 L 369 92.5 L 350.5 93 L 350.5 92 Z " /><path fill="rgb(253,125,173)" stroke="rgb(253,125,173)" stroke-width="1" opacity="0.996078431372549" d="M 344.5 93 L 347 93.5 L 344.5 94 L 344.5 93 Z " /><path fill="rgb(253,125,173)" stroke="rgb(253,125,173)" stroke-width="1" opacity="0.996078431372549" d="M 372.5 93 L 376 93.5 L 372.5 94 L 372.5 93 Z " /><path fill="rgb(253,125,173)" stroke="rgb(253,125,173)" stroke-width="1" opacity="0.996078431372549" d="M 411.5 96 L 412.5 98 L 411.5 96 Z " /><path fill="rgb(253,125,173)" stroke="rgb(253,125,173)" stroke-width="1" opacity="0.996078431372549" d="M 414.5 98 L 415.5 100 L 414.5 98 Z " /><path fill="rgb(253,125,173)" stroke="rgb(253,125,173)" stroke-width="1" opacity="0.996078431372549" d="M 393.5 99 L 402 103.5 L 400.5 103 L 393.5 100 L 393.5 99 Z " /><path fill="rgb(253,125,173)" stroke="rgb(253,125,173)" stroke-width="1" opacity="0.996078431372549" d="M 418.5 101 L 419.5 103 L 418.5 101 Z " /><path fill="rgb(253,125,173)" stroke="rgb(253,125,173)" stroke-width="1" opacity="0.996078431372549" d="M 90.5 102 L 89.5 104 L 90.5 102 Z " /><path fill="rgb(253,125,173)" stroke="rgb(253,125,173)" stroke-width="1" opacity="0.996078431372549" d="M 422.5 104 L 427.5 110 L 422.5 104 Z " /><path fill="rgb(253,125,173)" stroke="rgb(253,125,173)" stroke-width="1" opacity="0.996078431372549" d="M 405.5 105 L 406.5 107 L 405.5 105 Z " /><path fill="rgb(253,125,173)" stroke="rgb(253,125,173)" stroke-width="1" opacity="0.996078431372549" d="M 307.5 107 L 306.5 109 L 307.5 107 Z " /><path fill="rgb(253,125,173)" stroke="rgb(253,125,173)" stroke-width="1" opacity="0.996078431372549" d="M 408.5 107 L 409.5 109 L 408.5 107 Z " /><path fill="rgb(253,125,173)" stroke="rgb(253,125,173)" stroke-width="1" opacity="0.996078431372549" d="M 83.5 108 L 78.5 114 L 83.5 108 Z " /><path fill="rgb(253,125,173)" stroke="rgb(253,125,173)" stroke-width="1" opacity="0.996078431372549" d="M 286.5 108 L 285.5 110 L 286.5 108 Z " /><path fill="rgb(253,125,173)" stroke="rgb(253,125,173)" stroke-width="1" opacity="0.996078431372549" d="M 411.5 109 L 413.5 112 L 411.5 109 Z " /><path fill="rgb(253,125,173)" stroke="rgb(253,125,173)" stroke-width="1" opacity="0.996078431372549" d="M 98.5 110 L 97.5 112 L 98.5 110 Z " /><path fill="rgb(253,125,173)" stroke="rgb(253,125,173)" stroke-width="1" opacity="0.996078431372549" d="M 228.5 111 L 229.5 113 L 228.5 111 Z " /><path fill="rgb(253,125,173)" stroke="rgb(253,125,173)" stroke-width="1" opacity="0.996078431372549" d="M 281.5 112 L 280.5 114 L 281.5 112 Z " /><path fill="rgb(253,125,173)" stroke="rgb(253,125,173)" stroke-width="1" opacity="0.996078431372549" d="M 415.5 112 L 424.5 121 L 425.5 120 L 432 115.5 L 430 112.5 L 437 118.5 Q 451.1 134.9 459 157.5 L 464 179.5 L 465 197.5 L 464 198.5 L 464 208.5 L 462 219.5 L 457 234.5 Q 447.4 256.9 430.5 272 L 272.5 415 L 260.5 422 L 250.5 422 Q 242.4 419.6 237.5 414 L 148 332.5 L 156 325.5 L 143 313.5 L 153.5 323 L 249.5 410 L 256.5 412 L 265.5 407 L 423 267.5 Q 439.2 249.7 449 225.5 L 454 204.5 L 454 183.5 L 447 156.5 L 439 140.5 Q 428.5 124 415.5 112 Z " /><path fill="rgb(253,125,173)" stroke="rgb(253,125,173)" stroke-width="1" opacity="0.996078431372549" d="M 298.5 113 L 297.5 115 L 298.5 113 Z " /><path fill="rgb(253,125,173)" stroke="rgb(253,125,173)" stroke-width="1" opacity="0.996078431372549" d="M 92.5 115 L 84.5 124 L 92.5 115 Z " /><path fill="rgb(253,125,173)" stroke="rgb(253,125,173)" stroke-width="1" opacity="0.996078431372549" d="M 132.5 115 Q 137.3 114.3 138 117.5 L 139 120.5 L 124 143.5 L 110 172.5 L 105 187.5 L 100 209.5 L 97.5 236 L 94 221.5 L 93 203.5 L 94 202.5 L 94 188.5 L 95 187.5 L 96 175.5 L 104 149.5 Q 112.1 130.1 127.5 118 L 132.5 115 Z " /><path fill="rgb(253,125,173)" stroke="rgb(253,125,173)" stroke-width="1" opacity="0.996078431372549" d="M 215.5 115 L 216.5 117 L 215.5 115 Z " /><path fill="rgb(253,125,173)" stroke="rgb(253,125,173)" stroke-width="1" opacity="0.996078431372549" d="M 295.5 115 L 294.5 117 L 295.5 115 Z " /><path fill="rgb(253,125,173)" stroke="rgb(253,125,173)" stroke-width="1" opacity="0.996078431372549" d="M 234.5 116 L 235.5 118 L 234.5 116 Z " /><path fill="rgb(253,125,173)" stroke="rgb(253,125,173)" stroke-width="1" opacity="0.996078431372549" d="M 219.5 118 L 220.5 120 L 219.5 118 Z " /><path fill="rgb(253,125,173)" stroke="rgb(253,125,173)" stroke-width="1" opacity="0.996078431372549" d="M 274.5 118 L 272.5 121 L 274.5 118 Z " /><path fill="rgb(253,125,173)" stroke="rgb(253,125,173)" stroke-width="1" opacity="0.996078431372549" d="M 290.5 119 L 289.5 121 L 290.5 119 Z " /><path fill="rgb(253,125,173)" stroke="rgb(253,125,173)" stroke-width="1" opacity="0.996078431372549" d="M 224.5 122 L 226.5 125 L 224.5 122 Z " /><path fill="rgb(253,125,173)" stroke="rgb(253,125,173)" stroke-width="1" opacity="0.996078431372549" d="M 285.5 123 L 282.5 127 L 285.5 123 Z " /><path fill="rgb(253,125,173)" stroke="rgb(253,125,173)" stroke-width="1" opacity="0.996078431372549" d="M 232.5 129 L 241.5 139 L 232.5 129 Z " /><path fill="rgb(253,125,173)" stroke="rgb(253,125,173)" stroke-width="1" opacity="0.996078431372549" d="M 261.5 131 L 258.5 135 L 261.5 131 Z " /><path fill="rgb(253,125,173)" stroke="rgb(253,125,173)" stroke-width="1" opacity="0.996078431372549" d="M 254.5 135 L 257 135.5 L 254.5 136 L 254.5 135 Z " /><path fill="rgb(253,125,173)" stroke="rgb(253,125,173)" stroke-width="1" opacity="0.996078431372549" d="M 246.5 143 L 247.5 145 L 246.5 143 Z " /><path fill="rgb(253,125,173)" stroke="rgb(253,125,173)" stroke-width="1" opacity="0.996078431372549" d="M 252.5 146 L 259 146.5 L 252.5 147 L 252.5 146 Z " /><path fill="rgb(253,125,173)" stroke="rgb(253,125,173)" stroke-width="1" opacity="0.996078431372549" d="M 58.5 178 L 59 180.5 L 58 180.5 L 58.5 178 Z " /><path fill="rgb(253,125,173)" stroke="rgb(253,125,173)" stroke-width="1" opacity="0.996078431372549" d="M 46.5 185 L 47 188.5 L 46 188.5 L 46.5 185 Z " /><path fill="rgb(253,125,173)" stroke="rgb(253,125,173)" stroke-width="1" opacity="0.996078431372549" d="M 57.5 187 L 58 199.5 L 57 199.5 L 57.5 187 Z " /><path fill="rgb(253,125,173)" stroke="rgb(253,125,173)" stroke-width="1" opacity="0.996078431372549" d="M 46.5 199 L 47 202.5 L 46 202.5 L 46.5 199 Z " /><path fill="rgb(253,125,173)" stroke="rgb(253,125,173)" stroke-width="1" opacity="0.996078431372549" d="M 58.5 206 L 59 208.5 L 58 208.5 L 58.5 206 Z " /><path fill="rgb(253,125,173)" stroke="rgb(253,125,173)" stroke-width="1" opacity="0.996078431372549" d="M 75.5 249 L 76.5 251 L 75.5 249 Z " /><path fill="rgb(253,125,173)" stroke="rgb(253,125,173)" stroke-width="1" opacity="0.996078431372549" d="M 78.5 253 L 81.5 257 L 78.5 253 Z " /><path fill="rgb(253,125,173)" stroke="rgb(253,125,173)" stroke-width="1" opacity="0.996078431372549" d="M 73.5 264 L 76.5 268 L 73.5 264 Z " /><path fill="rgb(253,125,173)" stroke="rgb(253,125,173)" stroke-width="1" opacity="0.996078431372549" d="M 89.5 264 L 94.5 270 L 89.5 264 Z " /><path fill="rgb(253,125,173)" stroke="rgb(253,125,173)" stroke-width="1" opacity="0.996078431372549" d="M 79.5 270 L 81.5 273 L 79.5 270 Z " /><path fill="rgb(253,125,173)" stroke="rgb(253,125,173)" stroke-width="1" opacity="0.996078431372549" d="M 100.5 274 L 105.5 280 L 100.5 274 Z " /><path fill="rgb(253,125,173)" stroke="rgb(253,125,173)" stroke-width="1" opacity="0.996078431372549" d="M 89.5 279 L 92.5 283 L 89.5 279 Z " /><path fill="rgb(253,125,173)" stroke="rgb(253,125,173)" stroke-width="1" opacity="0.996078431372549" d="M 110.5 283 L 116.5 290 L 110.5 283 Z " /><path fill="rgb(253,125,173)" stroke="rgb(253,125,173)" stroke-width="1" opacity="0.996078431372549" d="M 99.5 288 L 102.5 292 L 99.5 288 Z " /><path fill="rgb(253,125,173)" stroke="rgb(253,125,173)" stroke-width="1" opacity="0.996078431372549" d="M 121.5 293 L 127.5 300 L 121.5 293 Z " /><path fill="rgb(253,125,173)" stroke="rgb(253,125,173)" stroke-width="1" opacity="0.996078431372549" d="M 109.5 297 L 113.5 302 L 109.5 297 Z " /><path fill="rgb(253,125,173)" stroke="rgb(253,125,173)" stroke-width="1" opacity="0.996078431372549" d="M 132.5 303 L 139.5 311 L 132.5 303 Z " /><path fill="rgb(253,125,173)" stroke="rgb(253,125,173)" stroke-width="1" opacity="0.996078431372549" d="M 119.5 306 L 123.5 311 L 119.5 306 Z " /><path fill="rgb(253,125,173)" stroke="rgb(253,125,173)" stroke-width="1" opacity="0.996078431372549" d="M 129.5 315 L 134.5 321 L 129.5 315 Z " /><path fill="rgb(253,125,173)" stroke="rgb(253,125,173)" stroke-width="1" opacity="0.996078431372549" d="M 139.5 324 L 144.5 330 L 139.5 324 Z " /><path fill="rgb(0,0,0)" stroke="rgb(0,0,0)" stroke-width="1" opacity="0" d="M 0 0 L 512 0 L 512 512 L 0 512 L 0 0 Z M 145 73 L 144 74 L 131 75 L 114 80 Q 92 89 77 104 Q 59 121 48 146 L 41 168 L 38 194 L 38 196 L 41 220 L 47 239 L 57 257 L 68 271 L 86 287 Q 88 286 87 289 L 89 289 L 107 306 Q 109 305 108 308 L 118 316 Q 120 315 119 318 L 121 318 L 139 335 Q 141 334 140 337 L 142 337 L 171 364 Q 173 363 172 366 L 174 366 L 192 383 Q 194 382 193 385 L 203 393 Q 205 392 204 395 L 206 395 L 224 412 Q 226 411 225 414 L 242 427 L 250 430 Q 268 432 276 423 L 432 282 Q 463 257 472 209 L 472 180 L 469 164 L 461 142 Q 454 127 444 115 Q 430 98 412 87 L 400 81 L 385 76 L 375 74 L 364 74 L 363 73 Q 358 72 357 74 L 355 73 L 354 74 L 339 75 L 324 79 L 302 89 Q 275 104 256 126 Q 231 98 196 82 L 173 75 L 159 74 L 158 73 L 145 73 Z " /><path fill="rgb(254,239,245)" stroke="rgb(254,239,245)" stroke-width="1" opacity="0.996078431372549" d="M 145.5 81 L 165.5 82 L 188.5 88 Q 207.7 95.3 222 107.5 L 214.5 113 L 212.5 113 Q 197.6 100.9 176.5 95 L 161.5 92 L 141.5 92 Q 102 99 82 125.5 Q 67 142.5 60 167.5 L 57 183.5 L 57 203.5 L 58 204.5 L 59 215.5 L 63 228.5 L 56.5 234 L 54 234 L 49 218.5 L 47 207.5 L 47 179.5 Q 55.8 130.8 87.5 105 Q 99.6 94.6 115.5 88 L 131.5 83 L 144.5 82 L 145.5 81 Z " /><path fill="rgb(215,26,85)" stroke="rgb(215,26,85)" stroke-width="1" opacity="0.9725490196078431" d="M 144.5 73 L 157.5 73 L 158.5 74 L 172.5 75 L 195.5 82 Q 231.3 98.2 255.5 126 Q 275.1 104.1 301.5 89 L 323.5 79 L 338.5 75 L 353.5 74 L 354.5 73 L 356.5 74 Q 357.8 71.8 362.5 73 L 363.5 74 L 374.5 74 L 384.5 76 L 399.5 81 L 411.5 87 Q 430.3 98.2 444 114.5 Q 454 126.5 461 141.5 L 469 163.5 L 472 179.5 L 472 208.5 Q 463.5 257 431.5 282 L 275.5 423 Q 267.7 431.7 249.5 430 L 241.5 427 L 225 414 Q 226.1 411.3 223.5 412 L 205.5 395 L 204 395 Q 205.1 392.3 202.5 393 L 193 385 Q 194.1 382.3 191.5 383 L 173.5 366 L 172 366 Q 173.1 363.3 170.5 364 L 141.5 337 L 140 337 Q 141.1 334.3 138.5 335 L 120.5 318 L 119 318 Q 120.1 315.3 117.5 316 L 108 308 Q 109.1 305.3 106.5 306 L 88.5 289 L 87 289 Q 88.1 286.3 85.5 287 L 68 270.5 L 57 256.5 L 47 238.5 L 41 219.5 L 38 195.5 L 38 193.5 L 41 167.5 L 48 145.5 Q 58.6 121.1 76.5 104 Q 92 89 113.5 80 L 130.5 75 L 143.5 74 L 144.5 73 Z M 141 81 L 126 84 L 110 90 Q 96 97 85 107 Q 66 124 55 149 L 48 171 L 47 184 L 46 185 L 46 204 L 49 221 Q 56 246 72 264 L 241 417 L 247 421 L 256 423 Q 264 422 270 418 L 427 276 Q 443 263 453 244 L 462 221 L 464 211 L 464 203 L 465 202 L 465 187 L 461 164 Q 453 138 438 120 Q 426 104 409 94 L 385 84 L 369 81 L 343 82 L 317 90 Q 281 107 258 135 L 254 135 Q 237 116 217 102 L 193 89 L 182 85 L 163 81 L 141 81 Z " /><path fill="rgb(252,58,132)" stroke="rgb(252,58,132)" stroke-width="1" opacity="0.996078431372549" d="M 77.5 114 L 76.5 116 L 77.5 114 Z " /><path fill="rgb(252,58,132)" stroke="rgb(252,58,132)" stroke-width="1" opacity="0.996078431372549" d="M 276.5 116 L 275.5 118 L 276.5 116 Z " /><path fill="rgb(252,58,132)" stroke="rgb(252,58,132)" stroke-width="1" opacity="0.996078431372549" d="M 464.5 186 L 465 189.5 L 464 189.5 L 464.5 186 Z " /><path fill="rgb(252,58,132)" stroke="rgb(252,58,132)" stroke-width="1" opacity="0.996078431372549" d="M 464.5 198 L 465 201.5 L 464 201.5 L 464.5 198 Z " /><path fill="rgb(252,58,132)" stroke="rgb(252,58,132)" stroke-width="1" opacity="0.996078431372549" d="M 443.5 257 L 442.5 259 L 443.5 257 Z " /><path fill="rgb(252,58,132)" stroke="rgb(252,58,132)" stroke-width="1" opacity="0.996078431372549" d="M 439.5 262 L 437.5 265 L 439.5 262 Z " /><path fill="rgb(252,58,132)" stroke="rgb(252,58,132)" stroke-width="1" opacity="0.996078431372549" d="M 429.5 272 L 426.5 276 L 429.5 272 Z " /><path fill="rgb(252,58,132)" stroke="rgb(252,58,132)" stroke-width="1" opacity="0.996078431372549" d="M 82.5 273 L 83.5 275 L 82.5 273 Z " /><path fill="rgb(252,58,132)" stroke="rgb(252,58,132)" stroke-width="1" opacity="0.996078431372549" d="M 419.5 281 L 415.5 286 L 419.5 281 Z " /><path fill="rgb(252,58,132)" stroke="rgb(252,58,132)" stroke-width="1" opacity="0.996078431372549" d="M 408.5 291 L 405.5 295 L 408.5 291 Z " /><path fill="rgb(252,58,132)" stroke="rgb(252,58,132)" stroke-width="1" opacity="0.996078431372549" d="M 103.5 292 L 104.5 294 L 103.5 292 Z " /><path fill="rgb(252,58,132)" stroke="rgb(252,58,132)" stroke-width="1" opacity="0.996078431372549" d="M 397.5 301 L 394.5 305 L 397.5 301 Z " /><path fill="rgb(252,58,132)" stroke="rgb(252,58,132)" stroke-width="1" opacity="0.996078431372549" d="M 387.5 310 L 384.5 314 L 387.5 310 Z " /><path fill="rgb(252,58,132)" stroke="rgb(252,58,132)" stroke-width="1" opacity="0.996078431372549" d="M 124.5 311 L 125.5 313 L 124.5 311 Z " /><path fill="rgb(252,58,132)" stroke="rgb(252,58,132)" stroke-width="1" opacity="0.996078431372549" d="M 376.5 320 L 373.5 324 L 376.5 320 Z " /><path fill="rgb(252,58,132)" stroke="rgb(252,58,132)" stroke-width="1" opacity="0.996078431372549" d="M 366.5 329 L 362.5 334 L 366.5 329 Z " /><path fill="rgb(252,58,132)" stroke="rgb(252,58,132)" stroke-width="1" opacity="0.996078431372549" d="M 145.5 330 L 146.5 332 L 145.5 330 Z " /><path fill="rgb(252,58,132)" stroke="rgb(252,58,132)" stroke-width="1" opacity="0.996078431372549" d="M 356.5 338 L 352.5 343 L 356.5 338 Z " /><path fill="rgb(252,58,132)" stroke="rgb(252,58,132)" stroke-width="1" opacity="0.996078431372549" d="M 345.5 348 L 341.5 353 L 345.5 348 Z " /><path fill="rgb(252,58,132)" stroke="rgb(252,58,132)" stroke-width="1" opacity="0.996078431372549" d="M 166.5 349 L 167.5 351 L 166.5 349 Z " /><path fill="rgb(252,58,132)" stroke="rgb(252,58,132)" stroke-width="1" opacity="0.996078431372549" d="M 176.5 358 L 177.5 360 L 176.5 358 Z " /><path fill="rgb(252,58,132)" stroke="rgb(252,58,132)" stroke-width="1" opacity="0.996078431372549" d="M 334.5 358 L 331.5 362 L 334.5 358 Z " /><path fill="rgb(252,58,132)" stroke="rgb(252,58,132)" stroke-width="1" opacity="0.996078431372549" d="M 324.5 367 L 320.5 372 L 324.5 367 Z " /><path fill="rgb(252,58,132)" stroke="rgb(252,58,132)" stroke-width="1" opacity="0.996078431372549" d="M 187.5 368 L 188.5 370 L 187.5 368 Z " /><path fill="rgb(252,58,132)" stroke="rgb(252,58,132)" stroke-width="1" opacity="0.996078431372549" d="M 197.5 377 L 198.5 379 L 197.5 377 Z " /><path fill="rgb(252,58,132)" stroke="rgb(252,58,132)" stroke-width="1" opacity="0.996078431372549" d="M 313.5 377 L 309.5 382 L 313.5 377 Z " /><path fill="rgb(252,58,132)" stroke="rgb(252,58,132)" stroke-width="1" opacity="0.996078431372549" d="M 207.5 386 L 209.5 389 L 207.5 386 Z " /><path fill="rgb(252,58,132)" stroke="rgb(252,58,132)" stroke-width="1" opacity="0.996078431372549" d="M 303.5 386 L 299.5 391 L 303.5 386 Z " /><path fill="rgb(252,58,132)" stroke="rgb(252,58,132)" stroke-width="1" opacity="0.996078431372549" d="M 217.5 395 L 220.5 399 L 217.5 395 Z " /><path fill="rgb(252,58,132)" stroke="rgb(252,58,132)" stroke-width="1" opacity="0.996078431372549" d="M 293.5 395 L 288.5 401 L 293.5 395 Z " /><path fill="rgb(252,58,132)" stroke="rgb(252,58,132)" stroke-width="1" opacity="0.996078431372549" d="M 228.5 405 L 230.5 408 L 228.5 405 Z " /><path fill="rgb(252,58,132)" stroke="rgb(252,58,132)" stroke-width="1" opacity="0.996078431372549" d="M 281.5 406 L 277.5 411 L 281.5 406 Z " /><path fill="rgb(252,58,132)" stroke="rgb(252,58,132)" stroke-width="1" opacity="0.996078431372549" d="M 238.5 414 L 240.5 417 L 238.5 414 Z " /><path fill="rgb(252,58,132)" stroke="rgb(252,58,132)" stroke-width="1" opacity="0.996078431372549" d="M 271.5 415 L 269.5 418 L 271.5 415 Z " /><path fill="rgb(253,58,132)" stroke="rgb(253,58,132)" stroke-width="1" opacity="1" d="M 150.5 92 L 152.5 93 L 164.5 93 L 177.5 96 L 204.5 108 Q 229 123.5 247.5 145 Q 251.1 147.9 258.5 147 L 263.5 145 L 293.5 117 Q 306.5 107 322.5 100 L 333.5 96 L 347.5 93 L 371.5 93 Q 409.4 100.6 429 126.5 Q 443.7 143.8 451 168.5 L 454 183.5 L 454 204.5 L 449 225.5 L 441 242.5 Q 431.9 258.4 419.5 271 Q 340.8 337.3 265.5 407 Q 261.9 411.4 254.5 412 L 249.5 410 L 241.5 403 L 82 257.5 Q 67.9 242.6 61 220.5 L 58 205.5 L 58 181.5 Q 66 135.5 96.5 112 Q 106.7 103.2 120.5 98 L 133.5 94 L 149.5 93 L 150.5 92 Z M 133 115 L 128 118 Q 112 130 104 150 L 96 176 L 95 188 L 94 189 L 94 203 L 93 204 L 94 222 L 98 236 L 100 210 L 105 188 L 110 173 L 124 144 L 139 121 L 138 118 Q 137 114 133 115 Z " /></svg>